<?xml version="1.0" standalone="no"?>
<!DOCTYPE svg PUBLIC "-//W3C//DTD SVG 20010904//EN"
 "http://www.w3.org/TR/2001/REC-SVG-20010904/DTD/svg10.dtd">
<svg version="1.0" xmlns="http://www.w3.org/2000/svg"
 width="1080.000000pt" height="1080.000000pt" viewBox="0 0 1080.000000 1080.000000"
 preserveAspectRatio="xMidYMid meet">

<g transform="translate(0.000000,1080.000000) scale(0.100000,-0.100000)"
fill="#000000" stroke="none">
<path d="M6475 7086 c-49 -7 -155 -14 -235 -15 -80 0 -167 -5 -195 -10 -27 -6
-120 -12 -205 -16 -281 -10 -330 -21 -387 -85 -13 -14 -38 -43 -58 -65 -19
-21 -38 -55 -41 -75 -4 -19 -23 -60 -43 -91 -20 -31 -63 -100 -96 -154 -33
-53 -80 -124 -105 -158 -77 -104 -96 -132 -125 -183 -16 -27 -41 -63 -56 -80
-14 -17 -46 -67 -69 -109 -24 -43 -80 -133 -126 -201 -46 -67 -90 -139 -98
-159 -9 -20 -25 -48 -36 -63 -27 -34 -164 -248 -197 -306 -6 -12 -28 -61 -49
-111 -21 -49 -47 -103 -57 -120 -36 -58 -90 -150 -118 -200 -21 -38 -39 -56
-74 -73 -25 -12 -51 -22 -59 -22 -37 0 -75 -82 -62 -135 6 -25 7 -25 116 -25
60 0 130 6 156 12 67 18 77 43 68 171 -9 139 14 221 100 366 34 58 73 128 87
155 13 27 43 69 67 95 23 25 42 53 42 63 0 42 104 210 137 223 10 3 46 -2 80
-11 53 -14 68 -15 87 -4 15 8 41 10 72 6 27 -3 67 -8 89 -11 22 -2 58 -7 79
-11 22 -4 86 -1 143 6 105 12 154 6 176 -24 8 -12 0 -842 -9 -887 -10 -52 -36
-64 -143 -65 -53 0 -102 -1 -108 -2 -28 -4 -11 -46 35 -88 l47 -44 156 0 c184
0 246 10 300 47 45 33 55 54 37 83 -11 19 -19 21 -58 15 -25 -4 -62 -9 -84
-12 -89 -12 -117 41 -117 226 -1 189 20 460 38 499 12 26 14 52 9 132 -9 120
-2 140 52 140 55 0 99 -15 132 -47 29 -27 34 -28 131 -28 l101 0 47 -52 c48
-54 78 -65 100 -40 6 8 28 22 49 31 69 31 86 89 57 191 -14 46 -20 53 -47 59
-56 11 -96 6 -135 -16 -35 -21 -54 -23 -228 -28 -104 -4 -205 -2 -224 3 l-33
9 6 156 c15 342 25 784 19 851 -6 67 -7 71 -27 65 -45 -14 -46 -17 -46 -233 0
-113 -7 -309 -15 -436 -8 -126 -16 -267 -17 -312 -2 -50 -8 -87 -16 -95 -14
-14 -94 -15 -230 -3 -47 4 -78 3 -86 -4 -14 -12 -313 0 -334 13 -7 4 -12 25
-12 48 0 34 15 62 105 197 58 86 128 187 155 226 28 38 50 74 50 81 0 6 18 39
40 73 22 34 40 64 40 67 0 3 24 43 54 87 30 45 65 105 80 134 14 28 60 94 102
147 90 113 85 111 296 125 82 6 156 14 165 20 10 5 79 12 153 16 74 4 163 10
197 14 36 4 67 3 72 -2 5 -5 29 -5 61 2 28 6 116 11 196 11 l145 0 16 -37 c10
-24 19 -85 23 -161 4 -67 10 -125 13 -128 3 -4 14 -4 23 0 14 5 15 16 11 64
-23 223 -37 271 -91 299 -41 21 -148 25 -261 9z"/>
</g>
</svg>
