<?xml version="1.0" standalone="no"?>
<!DOCTYPE svg PUBLIC "-//W3C//DTD SVG 20010904//EN"
 "http://www.w3.org/TR/2001/REC-SVG-20010904/DTD/svg10.dtd">
<svg version="1.0" xmlns="http://www.w3.org/2000/svg"
 width="1080.000000pt" height="1080.000000pt" viewBox="0 0 1080.000000 1080.000000"
 preserveAspectRatio="xMidYMid meet">

<g transform="translate(0.000000,1080.000000) scale(0.100000,-0.100000)"
fill="#000000" stroke="none">
<path d="M3284 5369 c-114 -14 -191 -67 -214 -147 -17 -58 -23 -179 -15 -309
l7 -118 38 -36 c73 -69 198 -78 272 -19 98 79 230 91 473 44 211 -41 269 -38
470 20 218 64 264 67 396 28 188 -56 336 -84 411 -77 l67 6 3 -148 3 -148 75
-8 c95 -11 847 -1 1045 13 211 15 522 47 640 66 396 63 888 243 1400 513 277
146 540 305 529 322 -7 11 -5514 10 -5600 -2z m5346 -43 c0 -19 -510 -281
-755 -388 -325 -142 -645 -245 -885 -283 -400 -63 -1155 -106 -1575 -89 l-175
7 0 378 0 379 1695 0 c932 0 1695 -2 1695 -4z m120 0 c0 -9 -240 -147 -402
-231 -534 -279 -980 -447 -1358 -511 -138 -23 -429 -53 -660 -69 -459 -30
-1106 -31 -1094 -1 3 8 122 11 442 12 443 0 631 9 982 44 267 27 367 44 565
95 349 91 630 202 1060 421 110 56 254 134 319 173 106 63 146 81 146 67z
m-5390 -136 c11 -11 20 -27 20 -35 0 -26 -38 -55 -72 -55 -58 0 -89 57 -52 94
22 23 80 20 104 -4z m748 4 c27 -19 28 -48 2 -74 -37 -37 -120 -15 -120 32 0
51 70 76 118 42z m790 0 c27 -19 28 -48 2 -74 -37 -37 -120 -15 -120 32 0 51
70 76 118 42z m-198 -271 c41 -19 132 -54 202 -77 115 -37 154 -56 114 -56
-25 0 -169 51 -288 101 -162 68 -156 69 -506 -35 -68 -20 -139 -36 -157 -36
-18 0 -103 13 -188 30 -224 42 -270 46 -363 25 -86 -19 -124 -35 -167 -71 -15
-13 -43 -26 -62 -30 -51 -9 -133 14 -169 48 l-31 30 40 -22 c28 -16 62 -24
115 -27 80 -5 70 -9 166 62 11 8 59 23 105 33 95 20 160 17 331 -19 219 -45
249 -44 432 17 256 83 301 86 426 27z"/>
<path d="M5785 5180 c-26 -28 -15 -31 12 -3 12 13 19 23 14 23 -4 0 -16 -9
-26 -20z"/>
<path d="M5804 5058 l-9 -113 -63 -3 c-77 -3 -85 10 -45 70 42 61 48 72 36 65
-10 -7 -125 -187 -177 -279 -15 -26 -35 -52 -46 -58 -31 -16 -24 -30 15 -30
34 0 35 1 35 38 0 27 12 57 43 107 l44 70 77 3 c62 2 77 0 82 -13 4 -9 2 -55
-2 -103 -8 -80 -11 -87 -32 -90 -36 -5 -15 -22 28 -22 45 0 72 9 65 21 -3 4
-12 6 -20 3 -25 -10 -34 30 -28 120 l6 87 41 -7 c23 -3 47 -11 53 -16 18 -14
43 -2 43 21 0 17 -7 19 -67 18 l-68 -2 4 113 c2 61 1 112 -1 112 -3 0 -9 -51
-14 -112z"/>
<path d="M6567 5133 c-15 -14 -7 -43 12 -43 26 0 36 17 21 35 -14 16 -23 19
-33 8z"/>
<path d="M6700 5120 c-12 -12 -20 -33 -20 -54 0 -24 -5 -36 -17 -39 -17 -4
-17 -5 0 -6 17 -1 18 -11 15 -111 l-3 -110 25 0 25 0 -3 109 c-3 108 -3 110
20 114 l23 4 -22 2 c-20 1 -23 7 -23 39 0 44 8 58 35 65 15 4 14 5 -7 6 -16 0
-37 -8 -48 -19z"/>
<path d="M6118 4960 l-3 -160 28 0 27 0 0 160 0 160 -25 0 -24 0 -3 -160z"/>
<path d="M6276 5103 c-6 -14 -5 -15 5 -6 7 7 10 15 7 18 -3 3 -9 -2 -12 -12z"/>
<path d="M6997 5113 c-15 -15 -7 -43 13 -43 11 0 20 -6 21 -12 0 -7 4 -3 9 10
5 12 7 29 4 37 -6 15 -35 20 -47 8z"/>
<path d="M6777 5104 c-4 -4 -7 -16 -7 -26 0 -14 6 -19 23 -16 14 2 22 10 22
23 0 20 -25 32 -38 19z"/>
<path d="M6328 5023 c8 -3 12 -36 12 -114 l0 -109 25 0 25 0 0 115 0 115 -37
-1 c-21 0 -32 -3 -25 -6z"/>
<path d="M6420 5019 c-12 -8 -11 -9 5 -7 19 3 20 -3 20 -105 l0 -107 25 0 25
0 -3 102 c-2 81 -6 106 -19 116 -20 15 -33 15 -53 1z"/>
<path d="M6548 5021 c10 -6 13 -35 10 -115 l-3 -106 25 0 25 0 -3 115 -3 115
-32 0 c-21 0 -27 -3 -19 -9z"/>
<path d="M6832 5020 c-28 -12 -42 -48 -42 -111 0 -60 22 -108 50 -109 3 0 4
45 2 101 -2 67 1 105 9 115 13 16 12 16 -19 4z"/>
<path d="M6878 5018 c7 -7 12 -31 12 -54 0 -36 -3 -43 -22 -47 -13 -2 -2 -5
25 -6 l47 -1 0 35 c0 37 -35 85 -62 85 -9 0 -9 -3 0 -12z"/>
<path d="M6205 4994 c-18 -28 -18 -29 10 -111 27 -77 31 -83 57 -83 l28 0 -34
98 c-19 53 -36 103 -38 111 -3 9 -10 4 -23 -15z"/>
<path d="M7112 5008 c-11 -14 -15 -33 -13 -59 0 -9 26 -34 56 -54 30 -21 55
-43 55 -48 0 -6 -8 -19 -17 -30 -17 -19 -17 -20 4 -8 24 12 37 46 31 77 -2 10
-26 35 -53 56 -32 24 -50 45 -49 58 1 23 0 24 -14 8z"/>
<path d="M7198 4995 c9 -11 18 -22 19 -24 2 -2 3 7 3 20 0 18 -5 25 -20 25
-18 0 -18 -1 -2 -21z"/>
<path d="M7091 4833 c-1 -25 2 -31 14 -27 10 4 12 10 7 18 -5 6 -12 18 -15 26
-3 8 -6 1 -6 -17z"/>
<path d="M6909 4823 c-13 -16 -12 -17 4 -4 16 13 21 21 13 21 -2 0 -10 -8 -17
-17z"/>
</g>
</svg>
